<?xml version="1.0" encoding="utf-8"?>
<!-- Generator: Adobe Illustrator 16.0.0, SVG Export Plug-In . SVG Version: 6.00 Build 0)  -->
<!DOCTYPE svg PUBLIC "-//W3C//DTD SVG 1.1//EN" "http://www.w3.org/Graphics/SVG/1.1/DTD/svg11.dtd">
<svg version="1.1" id="Layer_4" xmlns="http://www.w3.org/2000/svg" xmlns:xlink="http://www.w3.org/1999/xlink" x="0px" y="0px"
	 width="100px" height="100px" viewBox="0 0 100 100" enable-background="new 0 0 100 100" xml:space="preserve">
<g>
	<path d="M99.049,49.092c0-5.988-4.873-10.862-10.862-10.862c-2.839,0-5.473,1.146-7.484,3.087c-7.403-4.9-17.43-8.024-28.53-8.421
		l6.063-19.172L74.65,17.59c-0.003,0.081-0.024,0.156-0.024,0.237c0,4.898,3.984,8.883,8.885,8.883c4.896,0,8.878-3.984,8.878-8.883
		c0-4.896-3.982-8.879-8.878-8.879c-3.76,0-6.964,2.354-8.259,5.658L57.56,10.443c-0.769-0.188-1.559,0.259-1.799,1.021
		l-6.763,21.377c-11.607,0.141-22.122,3.281-29.852,8.32c-1.999-1.843-4.604-2.932-7.34-2.932c-5.986,0-10.855,4.874-10.855,10.862
		c0,3.877,2.083,7.419,5.378,9.352c-0.207,1.147-0.346,2.308-0.346,3.49c0,16.057,19.653,29.118,43.812,29.118
		c24.16,0,43.814-13.062,43.814-29.118c0-1.114-0.116-2.208-0.301-3.29C96.826,56.77,99.049,53.155,99.049,49.092z M83.511,11.987
		c3.219,0,5.836,2.619,5.836,5.84c0,3.222-2.617,5.843-5.836,5.843c-3.222,0-5.846-2.621-5.846-5.843
		C77.665,14.606,80.289,11.987,83.511,11.987z M3.992,49.092c0-4.312,3.505-7.821,7.814-7.821c1.759,0,3.446,0.62,4.816,1.695
		c-4.542,3.504-7.84,7.729-9.467,12.381C5.201,53.895,3.992,51.594,3.992,49.092z M49.795,88.012
		c-22.481,0-40.771-11.697-40.771-26.078c0-14.378,18.29-26.079,40.771-26.079c22.482,0,40.775,11.701,40.775,26.079
		C90.57,76.314,72.277,88.012,49.795,88.012z M92.525,55.576c-1.576-4.676-4.835-8.929-9.35-12.46
		c1.396-1.174,3.147-1.846,5.011-1.846c4.314,0,7.82,3.51,7.82,7.821C96.007,51.757,94.674,54.148,92.525,55.576z"/>
	<path d="M41.576,56.548c0-3.565-2.898-6.466-6.462-6.466c-3.564,0-6.466,2.9-6.466,6.466c0,3.563,2.901,6.462,6.466,6.462
		C38.678,63.01,41.576,60.111,41.576,56.548z"/>
	<path d="M64.912,50.082c-3.563,0-6.462,2.9-6.462,6.466c0,3.563,2.898,6.462,6.462,6.462c3.563,0,6.461-2.898,6.461-6.462
		C71.373,52.982,68.475,50.082,64.912,50.082z"/>
	<path d="M63.533,73.562c-2.658,2.658-7.067,3.951-13.48,3.951c-0.018,0-0.033,0.01-0.054,0.01c-0.019,0-0.035-0.01-0.054-0.01
		c-6.413,0-10.822-1.293-13.479-3.951c-0.594-0.594-1.557-0.594-2.15,0c-0.594,0.595-0.594,1.556-0.002,2.149
		c3.258,3.259,8.37,4.841,15.631,4.841c0.019,0,0.035-0.011,0.054-0.011c0.021,0,0.036,0.011,0.054,0.011
		c7.26,0,12.373-1.582,15.63-4.841c0.594-0.594,0.594-1.555,0.001-2.149C65.09,72.968,64.127,72.968,63.533,73.562z"/>
</g>
</svg>
